<?xml version="1.0" encoding="UTF-8" standalone="no"?>
<!-- Uploaded to: SVG Repo, www.svgrepo.com, Generator: SVG Repo Mixer Tools -->

<svg
   fill="#000000"
   width="800"
   height="800"
   viewBox="0 0 32 32"
   version="1.1"
   id="svg1"
   sodipodi:docname="arch-linux-svgrepo-com.svg"
   inkscape:export-filename="../dotfiles/.config/awesome/assets/arch.svg"
   inkscape:export-xdpi="96"
   inkscape:export-ydpi="96"
   xmlns:inkscape="http://www.inkscape.org/namespaces/inkscape"
   xmlns:sodipodi="http://sodipodi.sourceforge.net/DTD/sodipodi-0.dtd"
   xmlns="http://www.w3.org/2000/svg"
   xmlns:svg="http://www.w3.org/2000/svg">
  <defs
     id="defs1" />
  <sodipodi:namedview
     id="namedview1"
     pagecolor="#ffffff"
     bordercolor="#000000"
     borderopacity="0.25"
     inkscape:showpageshadow="2"
     inkscape:pageopacity="0.0"
     inkscape:pagecheckerboard="0"
     inkscape:deskcolor="#d1d1d1" />
  <path
     d="m 16.041354,0.00105217 c 1.429793,3.48583443 2.288303,5.77009243 3.877549,9.15702303 -0.973611,1.0300728 -2.172146,2.2305978 -4.114088,3.5836858 2.089779,-0.860674 3.514293,-1.720295 4.581886,-2.613586 2.034869,4.23603 5.224977,10.258643 11.692839,21.843019 -5.0877,-2.926081 -9.02544,-4.729498 -12.699185,-5.41972 0.154172,-0.67444 0.247098,-1.402541 0.241818,-2.170624 l -0.0053,-0.158877 c -0.08237,-3.250149 -1.776155,-5.742736 -3.783568,-5.573337 -2.007413,0.169399 -3.569204,2.937654 -3.492117,6.186751 0.0169,0.608153 0.08765,1.194211 0.209083,1.742391 C 8.9145619,27.284835 5.015893,29.081939 0,31.970142 0.99050687,30.156203 1.8701361,28.517977 2.7170301,26.96182 4.0422818,25.937007 5.4287802,24.599701 8.250352,23.152969 6.3084095,23.656958 4.922967,24.237755 3.8395341,24.884839 12.414071,8.9876239 13.101513,6.8717129 16.043466,0 Z"
     id="path1"
     sodipodi:nodetypes="ccccccccscccccccc"
     style="stroke-width:1.05407" />
</svg>
